<svg width="1536" height="1024" viewBox="0 0 1536 1024" xmlns="http://www.w3.org/2000/svg">
  <defs>
    <linearGradient id="bg" x1="0" y1="0" x2="1" y2="1">
      <stop offset="0%" stop-color="#171721" />
      <stop offset="100%" stop-color="#1e1e2a" />
    </linearGradient>
    <pattern id="grid" width="64" height="64" patternUnits="userSpaceOnUse">
      <path d="M 64 0 L 0 0 0 64" fill="none" stroke="rgba(237,237,243,0.06)" stroke-width="1"/>
    </pattern>
  </defs>

  <rect width="1536" height="1024" fill="url(#bg)" />
  <rect width="1536" height="1024" fill="url(#grid)" />

  <!-- Cobalt top accent -->
  <rect x="100" y="100" width="56" height="7" rx="3.5" fill="#5266eb" />

  <!-- Brand mark -->
  <circle cx="128" cy="190" r="32" fill="#5266eb" />
  <path d="M128 174v32M112 190h32" stroke="#ffffff" stroke-width="4.5" stroke-linecap="round" />

  <!-- Main title -->
  <text x="100" y="340" font-family="Inter, ui-sans-serif, system-ui, -apple-system, BlinkMacSystemFont, 'Segoe UI', Roboto, 'Noto Sans CJK SC', 'PingFang SC', 'Microsoft YaHei', sans-serif" font-size="108" font-weight="480" fill="#ededf3" letter-spacing="-0.02em">
    南医八年
  </text>

  <!-- Subtitle -->
  <text x="100" y="415" font-family="Inter, ui-sans-serif, system-ui, -apple-system, BlinkMacSystemFont, 'Segoe UI', Roboto, 'Noto Sans CJK SC', 'PingFang SC', 'Microsoft YaHei', sans-serif" font-size="40" font-weight="400" fill="#c3c3cc">
    医学学习知识库 · 让医学知识有迹可循
  </text>

  <!-- Decorative card -->
  <rect x="936" y="170" width="500" height="540" rx="12" fill="#1e1e2a" stroke="rgba(237,237,243,0.10)" stroke-width="1" />
  <rect x="986" y="240" width="150" height="16" rx="8" fill="#5266eb" />
  <rect x="986" y="300" width="400" height="12" rx="6" fill="#2d2d3d" />
  <rect x="986" y="340" width="350" height="12" rx="6" fill="#2d2d3d" />
  <rect x="986" y="380" width="390" height="12" rx="6" fill="#2d2d3d" />
  <rect x="986" y="450" width="200" height="56" rx="28" fill="#5266eb" />

  <!-- Footer label -->
  <text x="100" y="900" font-family="ui-monospace, SF Mono, Menlo, monospace" font-size="18" font-weight="400" fill="#70707d" letter-spacing="0.14em" text-transform="uppercase">
    MEDICAL ARCHIVE · SOUTHERN MEDICAL UNIVERSITY
  </text>
</svg>
